name C:\Users\u0101727\Documents\MyRepositories\upper-imu-dc\Results\main_tracking\Case_43\kinematics.mot
datacolumns 10
datarows 52
range 2.00000000 2.51000000
endheader 
time	clav_prot	clav_elev	scapula_abduction	scapula_elevation	scapula_upward_rot	scapula_winging	plane_elv	shoulder_elv	axial_rot	
          2.00000000	        -25.23280470	          4.24904193	          8.76433720	         -4.51694540	         51.55130625	         -4.99085108	         61.34652365	         71.13886659	        -20.57605022	
          2.01000000	        -25.34079662	          4.31343400	          8.88281207	         -4.50341327	         51.94312587	         -5.05153357	         61.15131665	         71.45117282	        -20.43145794	
          2.02000000	        -25.45331635	          4.37327144	          8.99424172	         -4.49244911	         52.33433419	         -5.11035844	         60.95248551	         71.76228043	        -20.28000313	
          2.03000000	        -25.57014320	          4.42885527	          9.09870410	         -4.48381464	         52.72467450	         -5.16742268	         60.75042515	         72.07214749	        -20.12215625	
          2.04000000	        -25.69104772	          4.48051790	          9.19628636	         -4.47725209	         53.11389125	         -5.22283163	         60.54550830	         72.38072117	        -19.95848682	
          2.05000000	        -25.81579639	          4.52861733	          9.28708327	         -4.47248884	         53.50173613	         -5.27669816	         60.33808144	         72.68793798	        -19.78964198	
          2.06000000	        -25.94415493	          4.57353042	          9.37119674	         -4.46924240	         53.88797224	         -5.32914136	         60.12846237	         72.99372567	        -19.61632070	
          2.07000000	        -26.07589095	          4.61564590	          9.44873530	         -4.46722549	         54.27237678	         -5.38028495	         59.91693962	         73.29800673	        -19.43924391	
          2.08000000	        -26.21077676	          4.65535747	          9.51981239	         -4.46615082	         54.65474280	         -5.43025564	         59.70377367	         73.60070323	        -19.25912141	
          2.09000000	        -26.34859289	          4.69305772	          9.58454294	         -4.46573545	         55.03488074	         -5.47918178	         59.48919912	         73.90174225	        -19.07661776	
          2.10000000	        -26.48913240	          4.72913315	          9.64303848	         -4.46570433	         55.41262007	         -5.52719244	         59.27342710	         74.20106078	        -18.89232010	
          2.11000000	        -26.63220532	          4.76396080	          9.69540175	         -4.46579275	         55.78781134	         -5.57441694	         59.05664719	         74.49860919	        -18.70671154	
          2.12000000	        -26.77764235	          4.79790665	          9.74172211	         -4.46574746	         56.16032809	         -5.62098495	         58.83902834	         74.79435273	        -18.52015370	
          2.13000000	        -26.92529677	          4.83132578	          9.78207322	         -4.46532642	         56.53006814	         -5.66702675	         58.62071846	         75.08827092	        -18.33288133	
          2.14000000	        -27.07504392	          4.86456368	          9.81651353	         -4.46429757	         56.89695348	         -5.71267358	         58.40184288	         75.38035553	        -18.14501004	
          2.15000000	        -27.22677817	          4.89795724	          9.84508967	         -4.46243759	         57.26092837	         -5.75805740	         58.18250175	         75.67060776	        -17.95655550	
          2.16000000	        -27.38040826	          4.93183427	          9.86784181	         -4.45953153	         57.62195561	         -5.80330990	         57.96276695	         75.95903545	        -17.76746002	
          2.17000000	        -27.53585208	          4.96651092	          9.88480942	         -4.45537400	         57.98001191	         -5.84856078	         57.74267964	         76.24565053	        -17.57762104	
          2.18000000	        -27.69303202	          5.00228724	          9.89603645	         -4.44977155	         58.33508298	         -5.89393548	         57.52224917	         76.53046649	        -17.38691736	
          2.19000000	        -27.85187171	          5.03944215	          9.90157489	         -4.44254584	         58.68715962	         -5.93955288	         57.30145473	         76.81349591	        -17.19523136	
          2.20000000	        -28.01229414	          5.07822869	          9.90148658	         -4.43353666	         59.03623479	         -5.98552336	         57.08024969	         77.09474758	        -17.00246717	
          2.21000000	        -28.17422107	          5.11887044	          9.89584362	         -4.42260425	         59.38230192	         -6.03194736	         56.85856867	         77.37422365	        -16.80856554	
          2.22000000	        -28.33757310	          5.16155934	          9.88472761	         -4.40963083	         59.72535378	         -6.07891450	         56.63633667	         77.65191723	        -16.61351551	
          2.23000000	        -28.50227070	          5.20645442	          9.86822747	         -4.39452141	         60.06538181	         -6.12650320	         56.41347927	         77.92781069	        -16.41736223	
          2.24000000	        -28.66823615	          5.25368101	          9.84643575	         -4.37720456	         60.40237572	         -6.17478061	         56.18993305	         78.20187509	        -16.22020942	
          2.25000000	        -28.83539656	          5.30332973	          9.81944329	         -4.35763319	         60.73632340	         -6.22380284	         55.96565510	         78.47407037	        -16.02221594	
          2.26000000	        -29.00368742	          5.35545526	          9.78733319	         -4.33578570	         61.06721092	         -6.27361535	         55.74063051	         78.74434577	        -15.82358719	
          2.27000000	        -29.17305587	          5.41007515	          9.75017522	         -4.31166698	         61.39502247	         -6.32425342	         55.51487717	         79.01263981	        -15.62456333	
          2.28000000	        -29.34346292	          5.46716889	          9.70802203	         -4.28530921	         61.71974033	         -6.37574269	         55.28844745	         79.27887909	        -15.42540667	
          2.29000000	        -29.51488391	          5.52667785	          9.66090815	         -4.25677195	         62.04134466	         -6.42809974	         55.06142710	         79.54297588	        -15.22639083	
          2.30000000	        -29.68730716	          5.58850628	          9.60885225	         -4.22614133	         62.35981347	         -6.48133257	         54.83393172	         79.80482506	        -15.02779368	
          2.31000000	        -29.86073066	          5.65252359	          9.55186264	         -4.19352817	         62.67512294	         -6.53544113	         54.60610153	         80.06430098	        -14.82989513	
          2.32000000	        -30.03515762	          5.71856802	          9.48994523	         -4.15906523	         62.98724828	         -6.59041782	         54.37809512	         80.32125528	        -14.63298012	
          2.33000000	        -30.21059135	          5.78645136	          9.42311299	         -4.12290343	         63.29616557	         -6.64624796	         54.15008296	         80.57551625	        -14.43734560	
          2.34000000	        -30.38703060	          5.85596451	          9.35139530	         -4.08520765	         63.60185443	         -6.70291049	         53.92224136	         80.82689026	        -14.24330972	
          2.35000000	        -30.56446609	          5.92688348	          9.27484566	         -4.04615219	         63.90430154	         -6.76037870	         53.69474755	         81.07516544	        -14.05121991	
          2.36000000	        -30.74287895	          5.99897540	          9.19354647	         -4.00591640	         64.20350459	         -6.81862133	         53.46777593	         81.32011726	        -13.86145729	
          2.37000000	        -30.92224105	          6.07200417	          9.10761059	         -3.96468057	         64.49947641	         -6.87760377	         53.24149536	         81.56151537	        -13.67443546	
          2.38000000	        -31.10251691	          6.14573554	          9.01718013	         -3.92262234	         64.79224887	         -6.93728949	         53.01606699	         81.79913057	        -13.49059344	
          2.39000000	        -31.28366657	          6.21994138	          8.92242332	         -3.87991375	         65.08187650	         -6.99764148	         52.79164230	         82.03274137	        -13.31038331	
          2.40000000	        -31.46564882	          6.29440326	          8.82353059	         -3.83671873	         65.36843954	         -7.05862350	         52.56836166	         82.26213950	        -13.13425433	
          2.41000000	        -31.64842409	          6.36891545	          8.72071055	         -3.79319099	         65.65204622	         -7.12020135	         52.34635343	         82.48713463	        -12.96263593	
          2.42000000	        -31.83195665	          6.44328757	          8.61418649	         -3.74947213	         65.93283392	         -7.18234370	         52.12573394	         82.70755831	        -12.79592187	
          2.43000000	        -32.01621572	          6.51734678	          8.50419344	         -3.70569003	         66.21096884	         -7.24502279	         51.90660807	         82.92326734	        -12.63445750	
          2.44000000	        -32.20117560	          6.59093951	          8.39097599	         -3.66195750	         66.48664422	         -7.30821464	         51.68907004	         83.13414650	        -12.47853090	
          2.45000000	        -32.38681483	          6.66393253	          8.27478671	         -3.61837142	         66.76007705	         -7.37189904	         51.47320377	         83.34011049	        -12.32836841	
          2.46000000	        -32.57311439	          6.73621324	          8.15588537	         -3.57501240	         67.03150374	         -7.43605894	         51.25908225	         83.54110501	        -12.18413446	
          2.47000000	        -32.76005531	          6.80768904	          8.03453890	         -3.53194506	         67.30117487	         -7.50067959	         51.04676561	         83.73710678	        -12.04593556	
          2.48000000	        -32.94761600	          6.87828587	          7.91102173	         -3.48921898	         67.56934976	         -7.56574729	         50.83629801	         83.92812239	        -11.91382769	
          2.49000000	        -33.13576979	          6.94794616	          7.78561600	         -3.44687005	         67.83629106	         -7.63124808	         50.62770370	         84.11418591	        -11.78782612	
          2.50000000	        -33.32448328	          7.01662647	          7.65861076	         -3.40492220	         68.10225989	         -7.69716659	         50.42098289	         84.29535542	        -11.66791591	
          2.51000000	        -33.51371598	          7.08429535	          7.53029946	         -3.36338896	         68.36751154	         -7.76348533	         50.21610839	         84.47170896	        -11.55406147	
